<svg width="24" height="24" viewBox="0 0 24 24" fill="none" xmlns="http://www.w3.org/2000/svg">
<path d="M10.0293 6.42139C10.3637 5.87853 10.5399 5.76789 10.54 6.09814C10.5401 6.3108 10.7427 6.64133 10.998 6.84619C11.2799 7.07447 11.7119 7.1938 12.2754 7.19385H12.7422L12.3818 7.48486C10.655 8.87952 10.8224 11.4954 12.8311 14.8521C13.2672 15.5711 13.6106 16.2467 13.8076 16.7612C13.8065 16.8666 13.8126 16.9763 13.8271 17.0874C13.8563 17.3093 13.9153 17.5162 13.9951 17.6978C13.9929 17.7565 14.003 17.8311 14.0205 17.9331C14.1526 18.7051 13.6936 20.1473 13.0859 20.8882C12.76 21.2898 12.0461 21.7148 11.4297 21.8804C10.4345 22.1403 9.02539 21.9592 8.31152 21.479C7.83577 21.1559 7.91463 21.1164 8.49609 21.3843C8.96253 21.6125 9.0514 21.6287 9.74707 21.5972C10.6892 21.5577 11.1833 21.3604 11.7734 20.8169C12.557 20.0842 12.9368 19.1383 12.7959 18.2876C12.7952 18.2838 12.7937 18.2796 12.793 18.2759C12.8036 18.1835 12.8049 18.0863 12.792 17.9878C12.7626 17.7649 12.6726 17.5653 12.5459 17.4087C12.4339 17.1452 12.1404 16.6552 11.6768 15.9712C10.7958 14.6396 9.61501 12.441 9.35059 11.6372C9.00712 10.5659 8.93629 10.0451 9.04199 9.25732C9.21817 7.99728 9.43037 7.39029 10.0293 6.42139ZM11.8252 4.05029C11.7811 3.79027 11.7818 3.78939 11.9492 3.92334C12.2047 4.12821 12.16 4.44394 11.8164 4.89307C11.376 5.47598 11.3499 5.6416 11.667 5.93311C11.8695 6.10632 12.0192 6.16937 12.2568 6.16943C12.6533 6.16943 12.8385 6.0823 13.4111 5.64893C13.8516 5.31015 14.2133 5.14502 14.4688 5.14502C14.6623 5.14509 14.6096 5.30259 14.3896 5.37354C14.2751 5.41292 13.9401 5.68854 13.6318 5.97998C12.883 6.71269 12.5392 6.90969 12.0283 6.90186C11.5175 6.89398 11.1119 6.68976 10.9268 6.34326C10.6977 5.90201 10.8124 5.60972 11.6494 4.59326C11.8254 4.38078 11.8603 4.25486 11.8252 4.05029ZM12.0547 5.19189C12.3187 5.02665 12.442 5.03514 12.6533 5.22412C12.8824 5.42899 12.8737 5.55519 12.6006 5.78369C12.3982 5.95681 12.3627 5.96433 12.1426 5.84619C11.8255 5.68858 11.7816 5.36522 12.0547 5.19189ZM12.4072 3.82178C12.5658 3.67995 12.83 3.78243 13.2705 4.16064C13.7901 4.60166 13.9929 4.68799 14.5391 4.68799C14.9002 4.68011 14.9533 4.69623 14.8213 4.76709C14.5218 4.91676 13.6145 4.86916 13.1387 4.68018C12.4163 4.39654 12.1342 4.06604 12.4072 3.82178ZM12.8916 3.38818C13.0502 3.23847 13.3675 3.35641 13.6406 3.64795C13.9754 4.02612 14.4688 4.27881 14.8564 4.27881C14.9971 4.27884 15.1197 4.3098 15.1201 4.35693C15.1201 4.47513 14.4241 4.45182 13.9131 4.31787C13.2878 4.15228 12.6628 3.58519 12.8916 3.38818ZM13.4902 3.02588C13.5871 2.87617 13.7818 2.9313 13.9492 3.14404C14.3191 3.61651 14.5658 3.82126 14.8564 3.88428L15.165 3.94775L14.8477 3.95557C14.4071 3.96345 13.6673 3.61618 13.5352 3.33252C13.4737 3.20691 13.4555 3.06586 13.4902 3.02588ZM15.8955 2.00146C16.0629 1.98571 16.019 2.13549 15.834 2.22217C15.737 2.26979 15.5432 2.48233 15.3936 2.69482C15.0766 3.16719 14.6715 3.38787 14.3633 3.26221C14.1166 3.16766 14.0894 2.89917 14.292 2.63916C14.4506 2.43432 14.9794 2.17418 15.4463 2.07959C15.6309 2.04028 15.8333 2.00943 15.8955 2.00146Z" fill="#1C0203"/>
</svg>
