<svg width="24" height="24" viewBox="0 0 24 24" fill="none" xmlns="http://www.w3.org/2000/svg">
<path d="M15.4278 2L15.5303 2.00195C16.5919 2.03906 17.5518 2.65235 18.0441 3.60548L21.6624 10.6055L21.7034 10.6885C22.0989 11.5166 22.0989 12.4834 21.7034 13.3115L21.6624 13.3945L18.0441 20.3945C17.5519 21.3476 16.5919 21.9609 15.5303 21.998L15.4278 22H8.57226C7.50488 22 6.52732 21.417 6.00475 20.4853L5.95592 20.3945L2.33765 13.3945C1.88745 12.5215 1.88745 11.4785 2.33765 10.6055L5.95592 3.6055L6.00475 3.51468C6.5272 2.58303 7.50475 2.00003 8.57226 2.00003L15.4278 2ZM7.80375 20.838C8.04301 20.9435 8.30376 21.0001 8.57231 21.0001H15.4278L15.4952 20.9992C15.7042 20.9913 15.9073 20.9494 16.0988 20.8781L13.8829 18.0616H9.9884L7.80375 20.838ZM14.7285 17.5188L16.9141 20.298C17.0069 20.1877 17.0879 20.0666 17.1563 19.9347L20.7736 12.9347L20.8263 12.8244C20.8732 12.7189 20.9103 12.6105 20.9376 12.5002H17.6416L14.7285 17.5188ZM3.06248 12.5003C3.10057 12.6497 3.15428 12.7952 3.22655 12.9348L6.84481 19.9349L6.87704 19.9964C6.92099 20.0735 6.96884 20.1468 7.0206 20.2161L9.14268 17.5188L6.22967 12.5003L3.06248 12.5003ZM7.09575 12.0003L10.0333 17.0618H13.838L16.7755 12.0003L13.838 6.93876H10.0333L7.09575 12.0003ZM14.7285 6.48076L17.6416 11.5003H20.9376C20.9102 11.3899 20.8731 11.2815 20.8262 11.176L20.7735 11.0657L17.1562 4.06568C17.0879 3.93384 17.0068 3.81275 16.914 3.7024L14.7285 6.48076ZM7.0205 3.7845C6.96874 3.85384 6.92089 3.92708 6.87695 4.00423L6.84472 4.06575L3.22645 11.0658C3.15419 11.2054 3.10047 11.3509 3.06239 11.5003H6.2294L9.14242 6.48083L7.0205 3.7845ZM8.50488 3.0013C8.25976 3.01009 8.02246 3.06575 7.80371 3.16146L9.98829 5.93871H13.8828L16.0986 3.12221C15.9072 3.04994 15.7041 3.00893 15.4951 3.00111L15.4277 3.00013H8.5722L8.50488 3.0013Z" fill="white"/>
</svg>
