<svg width="24" height="24" viewBox="0 0 24 24" fill="none" xmlns="http://www.w3.org/2000/svg">
<path d="M20.6047 12C20.6047 7.24814 16.7519 3.39531 12 3.39531C7.24814 3.39531 3.39531 7.24814 3.39531 12C3.39531 16.7519 7.24814 20.6047 12 20.6047C16.7519 20.6047 20.6047 16.7519 20.6047 12ZM22 12C22 17.5227 17.5227 22 12 22C6.47726 22 2 17.5227 2 12C2 6.47726 6.47726 2 12 2C17.5227 2 22 6.47726 22 12Z" fill="#1C0203"/>
<path d="M14.7956 12.7752C15.2491 12.3218 15.2491 11.5849 14.7956 11.1314L12.8221 9.15789C12.3678 8.70353 11.6318 8.70353 11.1774 9.15789L9.20394 11.1314C8.75047 11.5848 8.75047 12.3217 9.20394 12.7752L11.1774 14.7487C11.6318 15.2031 12.3678 15.2031 12.8221 14.7487L14.7956 12.7752ZM13.8084 15.7351C12.8099 16.7345 11.1897 16.7345 10.1911 15.7351L8.21764 13.7624C7.21912 12.763 7.21912 11.1437 8.21764 10.1442L10.1911 8.17077C11.1896 7.17224 12.8098 7.17224 13.8084 8.17077L15.7819 10.1442C16.7804 11.1436 16.7804 12.763 15.7819 13.7624L13.8084 15.7351Z" fill="#1C0203"/>
</svg>
