<svg width="24" height="24" viewBox="0 0 24 24" fill="none" xmlns="http://www.w3.org/2000/svg">
<path d="M18.6699 7.16113C19.1076 7.16034 19.5416 7.24626 19.9463 7.41309C20.3508 7.57991 20.7184 7.82486 21.0283 8.13379C21.3384 8.44296 21.5849 8.81051 21.7529 9.21484C21.9209 9.6191 22.0074 10.0525 22.0078 10.4902C22.0072 10.6959 21.9882 10.9014 21.9502 11.1035L20.3369 19.6318C20.212 20.2975 19.8583 20.8987 19.3369 21.3311C18.8156 21.7634 18.1597 22.0003 17.4824 22H6.51465C5.8363 22.0018 5.17887 21.7655 4.65625 21.333C4.13362 20.9005 3.77844 20.2986 3.65332 19.6318L2.05664 11.1035C1.96661 10.6229 1.9837 10.1276 2.10645 9.6543C2.22921 9.18111 2.45444 8.74047 2.7666 8.36426C3.07882 7.988 3.47059 7.68549 3.91309 7.47754C4.35566 7.26959 4.83913 7.1613 5.32812 7.16113H18.6699ZM5.32812 9.09668C5.12156 9.09319 4.91664 9.1363 4.72852 9.22168C4.54041 9.30706 4.3736 9.43306 4.24023 9.59082C4.1069 9.74856 4.00991 9.93413 3.95703 10.1338C3.90424 10.3334 3.89679 10.5421 3.93457 10.7451L5.54688 19.2744C5.58882 19.4991 5.70964 19.7021 5.88672 19.8467C6.06375 19.9911 6.2862 20.0683 6.51465 20.0645H17.4824C17.7111 20.0683 17.9342 19.9914 18.1113 19.8467C18.2884 19.7021 18.4082 19.4991 18.4502 19.2744L20.04 10.7451C20.0775 10.5439 20.0702 10.3367 20.0186 10.1387C19.967 9.94091 19.8728 9.75679 19.7422 9.59961C19.6113 9.44227 19.447 9.31535 19.2617 9.22852C19.0765 9.14174 18.8744 9.09661 18.6699 9.09668H5.32812ZM18.4502 2C18.7066 2.00009 18.9524 2.10198 19.1338 2.2832C19.3153 2.46469 19.418 2.71112 19.418 2.96777C19.418 3.22441 19.3153 3.47087 19.1338 3.65234C18.9524 3.83353 18.7066 3.93545 18.4502 3.93555H5.54688C5.29024 3.93555 5.04378 3.8338 4.8623 3.65234C4.68083 3.47087 4.57911 3.22441 4.5791 2.96777C4.5791 2.71112 4.68082 2.46469 4.8623 2.2832C5.04379 2.10172 5.29022 2 5.54688 2H18.4502Z" fill="white"/>
</svg>
