<svg width="24" height="24" viewBox="0 0 24 24" fill="none" xmlns="http://www.w3.org/2000/svg">
<path d="M21.4633 7.04267L18.2573 3.63438C17.8781 3.23126 17.3426 3 16.7873 3H7.21438C6.66011 3 6.12355 3.23229 5.7443 3.63438L2.53832 7.04267C1.87672 7.74892 1.81839 8.82186 2.39975 9.59165L10.391 20.2C10.6869 20.5917 11.1036 20.8531 11.5725 20.9542C11.5777 20.9542 11.5829 20.9542 11.5881 20.9573C11.7214 20.9844 11.86 21 11.9986 21C12.1403 21 12.2757 20.9844 12.4091 20.9573C12.4143 20.9573 12.4227 20.9573 12.4279 20.9542C12.457 20.949 12.4862 20.9406 12.5185 20.9333H12.5216C12.9509 20.8187 13.3322 20.5677 13.6093 20.2031L21.6006 9.59476C22.1819 8.82185 22.1236 7.74891 21.4589 7.04266L21.4633 7.04267ZM7.58025 9.00311L10.2266 17.7688L3.62208 9.00311H7.58025ZM13.0875 4.33641L14.8243 7.66977H9.17222L10.909 4.33641H13.0875ZM15.0275 9.00311L11.9996 19.0304L8.97183 9.00311H15.0275ZM16.4194 9.00311H20.3776L13.773 17.7688L16.4194 9.00311ZM17.2831 4.55001L20.2203 7.66977H16.3288L14.592 4.33641H16.7873C16.9769 4.33641 17.1582 4.41349 17.2863 4.54995L17.2831 4.55001ZM6.71647 4.55001C6.84462 4.41355 7.02592 4.33647 7.21553 4.33647H9.41078L7.67397 7.66983H3.78252L6.71964 4.55007L6.71647 4.55001Z" fill="#1C0203"/>
</svg>
