<svg width="24" height="24" viewBox="0 0 24 24" fill="none" xmlns="http://www.w3.org/2000/svg">
<path d="M21.68 8.16922C21.4737 7.41302 20.7612 6.78883 19.9487 6.65211C19.9472 6.65211 19.9456 6.65211 19.944 6.65133C19.7534 6.62008 17.9424 6.45134 16.1316 6.36618L16.4918 6.14041C16.9816 5.69981 17.2832 5.0717 17.2832 4.39049C17.2832 3.07259 16.1715 2 14.805 2C13.6331 2 12.612 2.80308 12.3768 3.90929L12.0018 5.9468L11.6299 3.92349L11.6268 3.90943C11.3939 2.80324 10.3721 2.00014 9.20014 2.00014C7.83373 2.00014 6.72193 3.07275 6.72193 4.39063C6.72193 5.07184 7.02349 5.69995 7.51411 6.14055L7.87193 6.36554C6.05942 6.44991 4.24532 6.62021 4.05471 6.65147C4.05315 6.65147 4.05159 6.65147 4.05081 6.65225C3.23752 6.78896 2.5258 7.41316 2.31798 8.1725C2.22736 8.50999 2.15157 8.89591 2.09142 9.32401C2.03283 9.75759 2.00158 10.1466 2.00001 10.481C1.99689 11.2685 2.5508 11.9122 3.33752 12.0989C3.27658 13.0887 3.21955 14.2864 3.23127 14.9582C3.26252 16.6182 3.41877 17.833 3.57815 18.7236C3.85549 20.197 5.1844 21.4727 6.63356 21.6985C7.47653 21.8367 10.1296 22 11.7836 22C11.8555 22 11.925 22 11.993 21.9992C12.0602 22 12.1305 22 12.2024 22C13.8563 22 16.5094 21.8367 17.3524 21.6985C18.8016 21.4727 20.1306 20.1962 20.4078 18.7236C20.5672 17.833 20.7234 16.6183 20.7547 14.9582C20.7656 14.2871 20.7094 13.0911 20.6484 12.1021C21.443 11.9201 22.0031 11.2724 22 10.4818C21.9984 10.1475 21.9672 9.75843 21.9078 9.32407C21.8484 8.89831 21.7719 8.51161 21.6805 8.171L21.68 8.16922ZM13.4627 6.21463L13.8331 4.20232C13.9284 3.7914 14.3432 3.48359 14.8049 3.48359C15.3526 3.48359 15.7987 3.88982 15.7987 4.38979C15.7987 4.5976 15.7159 4.80306 15.569 4.96633L15.3425 5.10851L13.4479 6.2983L13.4635 6.21392L13.4627 6.21463ZM9.20031 3.48435C9.66359 3.48435 10.08 3.79372 10.1738 4.20698L10.5425 6.21469L10.5581 6.29906L8.66281 5.1085L8.43781 4.9671C8.29016 4.80382 8.20657 4.59835 8.20657 4.39056C8.20657 3.89059 8.65187 3.48435 9.20031 3.48435ZM19.2708 14.9322C19.2458 16.2259 19.1411 17.3775 18.9481 18.4539C18.87 18.8632 18.6348 19.2749 18.2856 19.6132C17.9434 19.9444 17.52 20.1702 17.1231 20.2319L17.1168 20.2327L17.1106 20.2343C16.377 20.3546 13.8152 20.5163 12.2012 20.5163C12.134 20.5163 12.0684 20.5163 12.0059 20.5155H11.9918H11.9777C11.9144 20.5163 11.8496 20.5163 11.7824 20.5163C10.1683 20.5163 7.6066 20.3554 6.87299 20.2343L6.86674 20.2327L6.86049 20.2319C6.46361 20.1702 6.04017 19.9445 5.69799 19.6132C5.34954 19.2757 5.11516 18.864 5.03548 18.4539C4.84329 17.3774 4.73704 16.2258 4.71282 14.9322C4.70423 14.4127 4.74329 13.3878 4.81751 12.1902L4.83001 11.9863C5.89564 11.9613 7.50962 11.9292 9.39963 11.9128V17.683C9.39963 18.1564 9.68009 18.6001 10.1153 18.8134C10.2762 18.8915 10.4465 18.9306 10.6145 18.9306C10.8489 18.9306 11.077 18.8556 11.2668 18.7071C11.4918 18.5321 11.7293 18.3306 11.9981 18.0853C12.2684 18.3306 12.5043 18.5321 12.7293 18.7071C13.0543 18.961 13.4957 19.0017 13.8809 18.8134C14.316 18.6009 14.5965 18.1572 14.5965 17.6838V11.9122C16.5027 11.9294 18.1075 11.9622 19.1519 11.9872L19.1644 12.1934C19.2379 13.3903 19.2769 14.4137 19.2683 14.9323L19.2708 14.9322ZM10.8871 17.0899V11.9026C11.2637 11.901 11.6473 11.9002 12.0371 11.9002C12.4027 11.9002 12.7621 11.901 13.1153 11.9018V17.0892C13.0098 16.9954 12.8981 16.8923 12.7793 16.7806C12.3355 16.365 11.6676 16.365 11.2246 16.7806C11.1059 16.8923 10.9942 16.9946 10.8887 17.0884L10.8871 17.0899ZM20.5036 10.5386C20.4598 10.5371 16.7191 10.4152 12.0363 10.4152C7.72071 10.4152 4.07689 10.5183 3.49729 10.5355C3.49025 10.5199 3.48557 10.5035 3.48557 10.4847C3.48635 10.2176 3.51291 9.8957 3.56369 9.52854C3.61525 9.16293 3.67854 8.83717 3.75275 8.55982C3.80197 8.38248 4.02775 8.16452 4.2887 8.11608C4.54182 8.08327 6.22231 7.92781 7.94191 7.84733L10.8177 7.71296C10.8177 7.71296 11.4349 7.69577 12.0224 7.69577C12.6099 7.69577 13.1873 7.71296 13.1873 7.71296L16.0623 7.84733C17.7826 7.9278 19.4607 8.08326 19.7123 8.11608C19.9732 8.16451 20.1982 8.38013 20.2474 8.55668C20.3224 8.83635 20.3865 9.16289 20.4373 9.52618C20.4889 9.89492 20.5154 10.2175 20.5154 10.4863C20.5154 10.505 20.5107 10.5222 20.5029 10.5379L20.5036 10.5386Z" fill="#1C0203"/>
</svg>
