<svg width="25" height="24" viewBox="0 0 25 24" fill="none" xmlns="http://www.w3.org/2000/svg">
<path d="M18.4414 4.75C18.9587 4.75026 19.3954 5.10289 19.6367 5.59961L19.7275 5.82031L21.2275 10.2275L21.2285 10.2285C21.34 10.5611 21.3708 10.9202 21.3223 11.2646H21.5947C22.1119 11.2646 22.5494 11.6167 22.791 12.1133L22.8818 12.335L24.3818 16.7422L24.3828 16.7432C24.5635 17.2822 24.5353 17.8961 24.292 18.4033L24.291 18.4023C24.0666 18.8727 23.6687 19.207 23.1953 19.2471L23.0996 19.251H8.77148L8.74609 19.25H1.40625C0.900372 19.2498 0.469842 18.9161 0.222656 18.4268C-0.0255387 17.935 -0.0653565 17.3312 0.0986328 16.7979L1.45996 12.3916C1.65999 11.7519 2.14943 11.2647 2.76465 11.2646H3.49512C3.44824 10.9401 3.46987 10.6003 3.56738 10.2832L4.92871 5.87695C5.12865 5.23778 5.61735 4.75035 6.23242 4.75H18.4414ZM3.01758 12.7363H2.76758C2.74228 12.7365 2.66017 12.764 2.6123 12.9102L1.24805 17.3174C1.21985 17.4078 1.21831 17.4994 1.24121 17.5811L1.27246 17.6592L1.27441 17.6631C1.32141 17.7587 1.3766 17.7743 1.40234 17.7744H7.38867C7.34296 17.4508 7.36705 17.1127 7.46387 16.7979L8.72168 12.7363H4.875C4.85034 12.7363 4.82825 12.7339 4.81348 12.7324C4.80292 12.7314 4.79734 12.731 4.79297 12.7305H3.01758V12.7363ZM10.127 12.7363C10.0894 12.7464 10.021 12.7894 9.98145 12.9102L8.61719 17.3174C8.58889 17.4081 8.58738 17.5001 8.61035 17.582L8.6416 17.6602L8.64355 17.6641C8.69005 17.7584 8.74492 17.7743 8.77148 17.7744H15.043C15.0675 17.7744 15.1244 17.7597 15.1738 17.6562C15.2243 17.5505 15.2323 17.4175 15.1934 17.3037L13.6934 12.8965C13.6574 12.7899 13.5958 12.7477 13.5625 12.7363H10.127ZM19.998 12.7324L19.9414 12.7363H18.1045L17.2783 14.7773C16.9041 15.7024 16.8482 16.7946 17.1133 17.7744H23.0996L23.123 17.7705C23.1514 17.7615 23.1924 17.734 23.2295 17.6562C23.2799 17.5504 23.2879 17.4175 23.249 17.3037L21.749 12.8965C21.7029 12.7598 21.6209 12.7314 21.5986 12.7314H20.0107L19.998 12.7324ZM15.835 15.2998C15.9114 14.8974 16.0256 14.5042 16.1777 14.1299L16.7422 12.7363H14.9629L15.835 15.2998ZM6.48633 6.22168H6.23633C6.21079 6.22194 6.12879 6.24972 6.08105 6.39551L4.7168 10.8027C4.68862 10.8931 4.68705 10.9847 4.70996 11.0664L4.74121 11.1445L4.74316 11.1484C4.79003 11.2438 4.84521 11.2596 4.87109 11.2598H12.4102C12.5523 9.46245 12.92 7.77315 13.5166 6.2168H6.48633V6.22168ZM14.8887 6.2168C14.2193 7.7453 13.7983 9.43539 13.6416 11.2598H19.9414L19.9648 11.2559C19.9936 11.247 20.0351 11.2195 20.0723 11.1416C20.1223 11.0366 20.13 10.9036 20.0908 10.7891L18.5908 6.38184C18.5561 6.27885 18.501 6.23781 18.4668 6.22363L18.4414 6.2168H14.8887Z" fill="#1C0203"/>
</svg>
