<svg width="25" height="24" viewBox="0 0 25 24" fill="none" xmlns="http://www.w3.org/2000/svg">
<path d="M18.4414 5C18.8913 5.00023 19.3038 5.35575 19.4912 5.90137L20.9912 10.3076C21.1217 10.6966 21.1278 11.1279 21.0127 11.5146H21.5947C22.0448 11.5146 22.458 11.8702 22.6455 12.416L24.1455 16.8223C24.3068 17.303 24.2802 17.8492 24.0664 18.2949C23.8564 18.7352 23.4931 19.0008 23.0996 19.001H8.77148C8.76757 19.001 8.76367 19.0001 8.75977 19H1.40625C1.02002 18.9999 0.66377 18.745 0.446289 18.3145C0.228779 17.8838 0.191619 17.3478 0.337891 16.8721L1.69922 12.4658C1.87927 11.89 2.29586 11.5146 2.76465 11.5146H3.80469C3.6939 11.1456 3.6912 10.7328 3.80664 10.3574L5.16797 5.95117C5.34799 5.37567 5.76386 5.00023 6.23242 5H18.4414ZM2.76758 12.4863C2.59511 12.4864 2.4415 12.6267 2.37402 12.8369L1.00879 17.2432C0.952624 17.4233 0.967442 17.6133 1.0498 17.7734C1.12853 17.9336 1.25988 18.0243 1.40234 18.0244H7.69824C7.58809 17.6566 7.5882 17.2458 7.70312 16.8721L9.06152 12.4863H4.875C4.85071 12.4863 4.82676 12.4825 4.80273 12.4805H2.76758V12.4863ZM10.0967 12.4863C9.94093 12.5103 9.80531 12.6433 9.74316 12.8369L8.37793 17.2432C8.32167 17.4234 8.33643 17.6142 8.41895 17.7744C8.49767 17.9344 8.62914 18.0243 8.77148 18.0244H15.043C15.1892 18.0244 15.3206 17.9288 15.3994 17.7637C15.4782 17.5984 15.4897 17.3979 15.4297 17.2227L13.9297 12.8164C13.8694 12.6376 13.7401 12.5115 13.5957 12.4863H10.0967ZM16.1123 18.0244H16.1514C16.1456 18.0006 16.1393 17.977 16.1338 17.9531C16.1277 17.9772 16.1193 18.0006 16.1123 18.0244ZM19.9414 12.4863H17.9365L17.0469 14.6836C16.6278 15.7194 16.5871 16.9474 16.9258 18.0244H23.0996C23.2457 18.0242 23.3764 17.9287 23.4551 17.7637C23.5338 17.5984 23.5454 17.3979 23.4854 17.2227L21.9854 12.8164C21.9178 12.6162 21.7636 12.4814 21.5986 12.4814H19.9971C19.9785 12.4826 19.9601 12.4863 19.9414 12.4863ZM15.9697 16.4717C15.9763 15.6968 16.1242 14.9246 16.4092 14.2236L17.1123 12.4863H14.6143L15.9697 16.4717ZM14.7256 5.9668C13.9716 7.63685 13.5145 9.49694 13.3711 11.5098H19.9414C20.0876 11.5097 20.2191 11.4142 20.2979 11.249C20.3765 11.0838 20.3871 10.8832 20.3271 10.708L18.8271 6.30176C18.7596 6.10174 18.6062 5.96699 18.4414 5.9668H14.7256ZM6.23633 5.97168C6.06392 5.97184 5.91023 6.11206 5.84277 6.32227L4.47754 10.7285C4.42136 10.9086 4.43626 11.0987 4.51855 11.2588C4.59725 11.4189 4.72869 11.5096 4.87109 11.5098H12.6387C12.7738 9.51514 13.1918 7.65683 13.8848 5.9668H6.23633V5.97168Z" fill="white"/>
<path d="M18.4414 5L18.4415 4.75H18.4414V5ZM19.4912 5.90137L19.7279 5.8208L19.7276 5.82014L19.4912 5.90137ZM20.9912 10.3076L21.2282 10.2281L21.2279 10.2271L20.9912 10.3076ZM21.0127 11.5146L20.7731 11.4433L20.6774 11.7646H21.0127V11.5146ZM22.6455 12.416L22.8822 12.3354L22.8819 12.3348L22.6455 12.416ZM24.1455 16.8223L24.3825 16.7427L24.3822 16.7417L24.1455 16.8223ZM24.0664 18.2949L23.841 18.1868L23.8408 18.1873L24.0664 18.2949ZM23.0996 19.001V19.251H23.0997L23.0996 19.001ZM8.77148 19.001L8.77142 19.251H8.77148V19.001ZM8.75977 19L8.76318 18.75H8.75977V19ZM1.40625 19L1.40619 19.25H1.40625V19ZM0.446289 18.3145L0.223141 18.4272L0.223143 18.4272L0.446289 18.3145ZM0.337891 16.8721L0.0990305 16.7983L0.0989323 16.7986L0.337891 16.8721ZM1.69922 12.4658L1.46061 12.3912L1.46036 12.392L1.69922 12.4658ZM3.80469 11.5146V11.7646H4.14076L4.04413 11.4428L3.80469 11.5146ZM3.80664 10.3574L3.56778 10.2836L3.56768 10.2839L3.80664 10.3574ZM5.16797 5.95117L4.92937 5.87654L4.92911 5.87738L5.16797 5.95117ZM6.23242 5V4.75L6.2323 4.75L6.23242 5ZM2.76758 12.4863L2.7677 12.7363L3.01758 12.7362V12.4863H2.76758ZM2.37402 12.8369L2.13597 12.7605L2.13522 12.7629L2.37402 12.8369ZM1.00879 17.2432L1.24745 17.3176L1.24759 17.3172L1.00879 17.2432ZM1.0498 17.7734L1.2742 17.6631L1.27212 17.6591L1.0498 17.7734ZM1.40234 18.0244L1.40221 18.2744H1.40234V18.0244ZM7.69824 18.0244V18.2744H8.03409L7.93773 17.9527L7.69824 18.0244ZM7.70312 16.8721L7.46432 16.7981L7.46417 16.7986L7.70312 16.8721ZM9.06152 12.4863L9.30033 12.5603L9.40067 12.2363H9.06152V12.4863ZM4.875 12.4863L4.87496 12.7363H4.875V12.4863ZM4.80273 12.4805L4.8235 12.2313L4.81313 12.2305H4.80273V12.4805ZM2.76758 12.4805V12.2305H2.51758V12.4805H2.76758ZM10.0967 12.4863V12.2363H10.0776L10.0587 12.2392L10.0967 12.4863ZM9.74316 12.8369L9.50511 12.7605L9.50436 12.7629L9.74316 12.8369ZM8.37793 17.2432L8.61658 17.3176L8.61673 17.3172L8.37793 17.2432ZM8.41895 17.7744L8.64329 17.664L8.64121 17.66L8.41895 17.7744ZM8.77148 18.0244L8.77129 18.2744H8.77148V18.0244ZM15.3994 17.7637L15.6251 17.8713L15.6251 17.8713L15.3994 17.7637ZM15.4297 17.2227L15.193 17.3032L15.1932 17.3036L15.4297 17.2227ZM13.9297 12.8164L13.6928 12.8963L13.693 12.897L13.9297 12.8164ZM13.5957 12.4863L13.6387 12.24L13.6173 12.2363H13.5957V12.4863ZM16.1123 18.0244L15.8725 17.9537L15.7779 18.2744H16.1123V18.0244ZM16.1514 18.0244V18.2744H16.4699L16.3942 17.965L16.1514 18.0244ZM16.1338 17.9531L16.3773 17.8967L15.8914 17.8919L16.1338 17.9531ZM19.9414 12.4863V12.7363H19.9414L19.9414 12.4863ZM17.9365 12.4863V12.2363H17.768L17.7048 12.3925L17.9365 12.4863ZM17.0469 14.6836L16.8151 14.5898L16.8151 14.5898L17.0469 14.6836ZM16.9258 18.0244L16.6873 18.0994L16.7423 18.2744H16.9258V18.0244ZM23.0996 18.0244V18.2744H23.0999L23.0996 18.0244ZM23.4551 17.7637L23.6807 17.8713L23.6808 17.8712L23.4551 17.7637ZM23.4854 17.2227L23.2487 17.3032L23.2488 17.3036L23.4854 17.2227ZM21.9854 12.8164L21.7485 12.8963L21.7487 12.897L21.9854 12.8164ZM19.9971 12.4814V12.2314H19.9891L19.9811 12.232L19.9971 12.4814ZM15.9697 16.4717L15.733 16.5522L16.2197 16.4738L15.9697 16.4717ZM16.4092 14.2236L16.6408 14.3178L16.6409 14.3174L16.4092 14.2236ZM17.1123 12.4863L17.344 12.5801L17.4832 12.2363H17.1123V12.4863ZM14.6143 12.4863V12.2363H14.2652L14.3776 12.5668L14.6143 12.4863ZM14.7256 5.9668V5.7168H14.5642L14.4977 5.86393L14.7256 5.9668ZM13.3711 11.5098L13.1217 11.492L13.1026 11.7598H13.3711V11.5098ZM19.9414 11.5098V11.7598H19.9415L19.9414 11.5098ZM20.2979 11.249L20.5235 11.3566L20.5236 11.3565L20.2979 11.249ZM20.3271 10.708L20.0905 10.7886L20.0906 10.789L20.3271 10.708ZM18.8271 6.30176L18.5903 6.3817L18.5905 6.38232L18.8271 6.30176ZM18.4414 5.9668L18.4417 5.7168H18.4414V5.9668ZM6.23633 5.97168L6.23656 6.22168L6.48633 6.22144V5.97168H6.23633ZM5.84277 6.32227L5.60472 6.24587L5.60397 6.24828L5.84277 6.32227ZM4.47754 10.7285L4.71619 10.803L4.71634 10.8025L4.47754 10.7285ZM4.51855 11.2588L4.74295 11.1485L4.74091 11.1445L4.51855 11.2588ZM4.87109 11.5098L4.87085 11.7598H4.87109V11.5098ZM12.6387 11.5098V11.7598H12.8723L12.8881 11.5267L12.6387 11.5098ZM13.8848 5.9668L14.1161 6.06164L14.2575 5.7168H13.8848V5.9668ZM6.23633 5.9668V5.7168H5.98633V5.9668H6.23633ZM18.4414 5L18.4413 5.25C18.75 5.25016 19.0893 5.50098 19.2548 5.9826L19.4912 5.90137L19.7276 5.82014C19.5182 5.21052 19.0326 4.7503 18.4415 4.75L18.4414 5ZM19.4912 5.90137L19.2545 5.98193L20.7545 10.3882L20.9912 10.3076L21.2279 10.2271L19.7279 5.8208L19.4912 5.90137ZM20.9912 10.3076L20.7542 10.3871C20.8683 10.7272 20.8736 11.1058 20.7731 11.4433L21.0127 11.5146L21.2523 11.586C21.3821 11.15 21.3752 10.6661 21.2282 10.2281L20.9912 10.3076ZM21.0127 11.5146V11.7646H21.5947V11.5146V11.2646H21.0127V11.5146ZM21.5947 11.5146V11.7646C21.9037 11.7646 22.2436 12.0156 22.4091 12.4972L22.6455 12.416L22.8819 12.3348C22.6724 11.7248 22.1859 11.2646 21.5947 11.2646V11.5146ZM22.6455 12.416L22.4088 12.4966L23.9088 16.9028L24.1455 16.8223L24.3822 16.7417L22.8822 12.3354L22.6455 12.416ZM24.1455 16.8223L23.9085 16.9018C24.0502 17.3241 24.0252 17.8028 23.841 18.1868L24.0664 18.2949L24.2918 18.403C24.5352 17.8957 24.5634 17.2819 24.3825 16.7427L24.1455 16.8223ZM24.0664 18.2949L23.8408 18.1873C23.6601 18.566 23.3714 18.7508 23.0995 18.751L23.0996 19.001L23.0997 19.251C23.6148 19.2507 24.0527 18.9044 24.2921 18.4025L24.0664 18.2949ZM23.0996 19.001V18.751H8.77148V19.001V19.251H23.0996V19.001ZM8.77148 19.001L8.77155 18.751C8.7802 18.751 8.78701 18.7515 8.79084 18.7518C8.79432 18.7521 8.79702 18.7525 8.79579 18.7523C8.79576 18.7523 8.79139 18.7518 8.78665 18.7513C8.78146 18.7508 8.77321 18.7502 8.76318 18.75L8.75977 19L8.75636 19.25C8.74827 19.2499 8.74198 19.2493 8.73874 19.249C8.73595 19.2488 8.73353 19.2484 8.73545 19.2487C8.73617 19.2488 8.74083 19.2493 8.74626 19.2498C8.75204 19.2504 8.76081 19.251 8.77142 19.251L8.77148 19.001ZM8.75977 19V18.75H1.40625V19V19.25H8.75977V19ZM1.40625 19L1.40631 18.75C1.13976 18.7499 0.857198 18.5734 0.669436 18.2017L0.446289 18.3145L0.223143 18.4272C0.470343 18.9165 0.900272 19.2499 1.40619 19.25L1.40625 19ZM0.446289 18.3145L0.669438 18.2017C0.482866 17.8324 0.448366 17.3634 0.576849 16.9455L0.337891 16.8721L0.0989323 16.7986C-0.0651275 17.3321 -0.025309 17.9353 0.223141 18.4272L0.446289 18.3145ZM0.337891 16.8721L0.576751 16.9459L1.93808 12.5396L1.69922 12.4658L1.46036 12.392L0.0990307 16.7983L0.337891 16.8721ZM1.69922 12.4658L1.93782 12.5404C2.09789 12.0286 2.44234 11.7646 2.76465 11.7646V11.5146V11.2646C2.14939 11.2646 1.66065 11.7515 1.46061 12.3912L1.69922 12.4658ZM2.76465 11.5146V11.7646H3.80469V11.5146V11.2646H2.76465V11.5146ZM3.80469 11.5146L4.04413 11.4428C3.9472 11.1199 3.9451 10.7577 4.0456 10.4309L3.80664 10.3574L3.56768 10.2839C3.4373 10.708 3.4406 11.1713 3.56524 11.5865L3.80469 11.5146ZM3.80664 10.3574L4.0455 10.4312L5.40683 6.02497L5.16797 5.95117L4.92911 5.87738L3.56778 10.2836L3.80664 10.3574ZM5.16797 5.95117L5.40657 6.02581C5.56667 5.514 5.91054 5.25016 6.23254 5.25L6.23242 5L6.2323 4.75C5.61718 4.7503 5.12932 5.23733 4.92937 5.87654L5.16797 5.95117ZM6.23242 5V5.25H18.4414V5V4.75H6.23242V5ZM2.76758 12.4863L2.76746 12.2363C2.44776 12.2365 2.22308 12.4891 2.13598 12.7605L2.37402 12.8369L2.61207 12.9133C2.65992 12.7642 2.74247 12.7363 2.7677 12.7363L2.76758 12.4863ZM2.37402 12.8369L2.13522 12.7629L0.769989 17.1692L1.00879 17.2432L1.24759 17.3172L2.61282 12.9109L2.37402 12.8369ZM1.00879 17.2432L0.770124 17.1687C0.695408 17.4083 0.713646 17.6665 0.82749 17.8878L1.0498 17.7734L1.27212 17.6591C1.22124 17.5602 1.20984 17.4382 1.24745 17.3176L1.00879 17.2432ZM1.0498 17.7734L0.825444 17.8837C0.935756 18.1081 1.14293 18.2743 1.40221 18.2744L1.40234 18.0244L1.40248 17.7744C1.37683 17.7744 1.32131 17.7591 1.27417 17.6632L1.0498 17.7734ZM1.40234 18.0244V18.2744H7.69824V18.0244V17.7744H1.40234V18.0244ZM7.69824 18.0244L7.93773 17.9527C7.84172 17.6321 7.84174 17.2719 7.94208 16.9455L7.70312 16.8721L7.46417 16.7986C7.33465 17.2198 7.33445 17.6811 7.45875 18.0961L7.69824 18.0244ZM7.70312 16.8721L7.94193 16.946L9.30033 12.5603L9.06152 12.4863L8.82272 12.4124L7.46432 16.7981L7.70312 16.8721ZM9.06152 12.4863V12.2363H4.875V12.4863V12.7363H9.06152V12.4863ZM4.875 12.4863L4.87504 12.2363C4.87544 12.2363 4.87315 12.2363 4.86388 12.2354C4.85885 12.2349 4.85483 12.2344 4.84736 12.2336C4.84084 12.233 4.8325 12.2321 4.8235 12.2313L4.80273 12.4805L4.78197 12.7296C4.79179 12.7304 4.79401 12.7309 4.81366 12.7329C4.82845 12.7344 4.85027 12.7363 4.87496 12.7363L4.875 12.4863ZM4.80273 12.4805V12.2305H2.76758V12.4805V12.7305H4.80273V12.4805ZM2.76758 12.4805H2.51758V12.4863H2.76758H3.01758V12.4805H2.76758ZM10.0967 12.4863L10.0587 12.2392C9.78263 12.2817 9.58694 12.5056 9.50512 12.7605L9.74316 12.8369L9.9812 12.9133C10.0237 12.781 10.0992 12.7389 10.1347 12.7334L10.0967 12.4863ZM9.74316 12.8369L9.50436 12.7629L8.13913 17.1692L8.37793 17.2432L8.61673 17.3172L9.98196 12.9109L9.74316 12.8369ZM8.37793 17.2432L8.13928 17.1687C8.06448 17.4084 8.08257 17.6673 8.19668 17.8889L8.41895 17.7744L8.64121 17.66C8.59029 17.5611 8.57886 17.4385 8.61658 17.3176L8.37793 17.2432ZM8.41895 17.7744L8.19464 17.8848C8.30542 18.1099 8.51306 18.2742 8.77129 18.2744L8.77148 18.0244L8.77168 17.7744C8.74521 17.7744 8.68993 17.7589 8.64325 17.664L8.41895 17.7744ZM8.77148 18.0244V18.2744H15.043V18.0244V17.7744H8.77148V18.0244ZM15.043 18.0244V18.2744C15.3109 18.2744 15.5169 18.098 15.6251 17.8713L15.3994 17.7637L15.1738 17.656C15.1243 17.7597 15.0675 17.7744 15.043 17.7744V18.0244ZM15.3994 17.7637L15.6251 17.8713C15.7322 17.6466 15.7473 17.3784 15.6662 17.1417L15.4297 17.2227L15.1932 17.3036C15.2321 17.4175 15.2242 17.5503 15.1737 17.6561L15.3994 17.7637ZM15.4297 17.2227L15.6664 17.1421L14.1664 12.7358L13.9297 12.8164L13.693 12.897L15.193 17.3032L15.4297 17.2227ZM13.9297 12.8164L14.1666 12.7366C14.086 12.4975 13.8979 12.2853 13.6387 12.24L13.5957 12.4863L13.5528 12.7326C13.5823 12.7378 13.6528 12.7777 13.6928 12.8963L13.9297 12.8164ZM13.5957 12.4863V12.2363H10.0967V12.4863V12.7363H13.5957V12.4863ZM16.1123 18.0244V18.2744H16.1514V18.0244V17.7744H16.1123V18.0244ZM16.1514 18.0244L16.3942 17.965C16.3868 17.9347 16.3826 17.9194 16.3773 17.8967L16.1338 17.9531L15.8902 18.0096C15.896 18.0345 15.9043 18.0666 15.9085 18.0838L16.1514 18.0244ZM16.1338 17.9531L15.8914 17.8919C15.8862 17.9125 15.8858 17.9088 15.8725 17.9537L16.1123 18.0244L16.3521 18.0951C16.3529 18.0925 16.3692 18.0419 16.3762 18.0143L16.1338 17.9531ZM19.9414 12.4863V12.2363H17.9365V12.4863V12.7363H19.9414V12.4863ZM17.9365 12.4863L17.7048 12.3925L16.8151 14.5898L17.0469 14.6836L17.2786 14.7774L18.1682 12.5802L17.9365 12.4863ZM17.0469 14.6836L16.8151 14.5898C16.3737 15.6809 16.3317 16.9685 16.6873 18.0994L16.9258 18.0244L17.1643 17.9494C16.8425 16.9262 16.8819 15.7579 17.2786 14.7774L17.0469 14.6836ZM16.9258 18.0244V18.2744H23.0996V18.0244V17.7744H16.9258V18.0244ZM23.0996 18.0244L23.0999 18.2744C23.3679 18.2741 23.5729 18.0975 23.6807 17.8713L23.4551 17.7637L23.2294 17.6561C23.1799 17.76 23.1235 17.7744 23.0993 17.7744L23.0996 18.0244ZM23.4551 17.7637L23.6808 17.8712C23.7878 17.6466 23.8029 17.3784 23.7219 17.1417L23.4854 17.2227L23.2488 17.3036C23.2878 17.4174 23.2799 17.5503 23.2294 17.6561L23.4551 17.7637ZM23.4854 17.2227L23.722 17.1421L22.222 12.7358L21.9854 12.8164L21.7487 12.897L23.2487 17.3032L23.4854 17.2227ZM21.9854 12.8164L22.2222 12.7365C22.1333 12.4728 21.9063 12.2314 21.5986 12.2314V12.4814V12.7314C21.6209 12.7314 21.7023 12.7596 21.7485 12.8963L21.9854 12.8164ZM21.5986 12.4814V12.2314H19.9971V12.4814V12.7314H21.5986V12.4814ZM19.9971 12.4814L19.9811 12.232C19.971 12.2326 19.9622 12.2335 19.9556 12.2342C19.9523 12.2346 19.9492 12.235 19.9468 12.2353C19.9441 12.2356 19.9424 12.2358 19.9406 12.236C19.9327 12.2369 19.9355 12.2363 19.9414 12.2363L19.9414 12.4863L19.9414 12.7363C19.966 12.7363 19.9874 12.7339 19.998 12.7327C20.0059 12.7318 20.0064 12.7317 20.0108 12.7312C20.0135 12.7309 20.0138 12.7309 20.013 12.7309L19.9971 12.4814ZM15.9697 16.4717L16.2197 16.4738C16.226 15.7287 16.3683 14.9879 16.6408 14.3178L16.4092 14.2236L16.1776 14.1295C15.88 14.8613 15.7265 15.6649 15.7197 16.4696L15.9697 16.4717ZM16.4092 14.2236L16.6409 14.3174L17.344 12.5801L17.1123 12.4863L16.8806 12.3925L16.1774 14.1298L16.4092 14.2236ZM17.1123 12.4863V12.2363H14.6143V12.4863V12.7363H17.1123V12.4863ZM14.6143 12.4863L14.3776 12.5668L15.733 16.5522L15.9697 16.4717L16.2064 16.3912L14.8509 12.4058L14.6143 12.4863ZM14.7256 5.9668L14.4977 5.86393C13.7306 7.56315 13.267 9.45238 13.1217 11.492L13.3711 11.5098L13.6205 11.5275C13.762 9.5415 14.2127 7.71054 14.9534 6.06966L14.7256 5.9668ZM13.3711 11.5098V11.7598H19.9414V11.5098V11.2598H13.3711V11.5098ZM19.9414 11.5098L19.9415 11.7598C20.2092 11.7597 20.4153 11.5835 20.5235 11.3566L20.2979 11.249L20.0722 11.1414C20.0228 11.2449 19.966 11.2598 19.9413 11.2598L19.9414 11.5098ZM20.2979 11.249L20.5236 11.3565C20.6309 11.1312 20.6444 10.8628 20.5637 10.627L20.3271 10.708L20.0906 10.789C20.1299 10.9036 20.1222 11.0365 20.0721 11.1415L20.2979 11.249ZM20.3271 10.708L20.5638 10.6274L19.0638 6.22119L18.8271 6.30176L18.5905 6.38232L20.0905 10.7886L20.3271 10.708ZM18.8271 6.30176L19.064 6.22181C18.9753 5.95889 18.7495 5.71717 18.4417 5.7168L18.4414 5.9668L18.4411 6.2168C18.463 6.21682 18.544 6.2446 18.5903 6.3817L18.8271 6.30176ZM18.4414 5.9668V5.7168H14.7256V5.9668V6.2168H18.4414V5.9668ZM6.23633 5.97168L6.23609 5.72168C5.91662 5.72198 5.69185 5.97442 5.60473 6.24587L5.84277 6.32227L6.08082 6.39866C6.12862 6.2497 6.21123 6.2217 6.23656 6.22168L6.23633 5.97168ZM5.84277 6.32227L5.60397 6.24828L4.23874 10.6545L4.47754 10.7285L4.71634 10.8025L6.08157 6.39626L5.84277 6.32227ZM4.47754 10.7285L4.23889 10.6541C4.16411 10.8937 4.18251 11.1519 4.2962 11.3731L4.51855 11.2588L4.74091 11.1445C4.69001 11.0455 4.67861 10.9234 4.71619 10.803L4.47754 10.7285ZM4.51855 11.2588L4.29419 11.3691C4.40452 11.5935 4.61178 11.7595 4.87085 11.7598L4.87109 11.5098L4.87134 11.2598C4.8456 11.2597 4.78999 11.2443 4.74292 11.1485L4.51855 11.2588ZM4.87109 11.5098V11.7598H12.6387V11.5098V11.2598H4.87109V11.5098ZM12.6387 11.5098L12.8881 11.5267C13.0216 9.55634 13.4342 7.72463 14.1161 6.06164L13.8848 5.9668L13.6535 5.87196C12.9494 7.58903 12.526 9.47394 12.3892 11.4929L12.6387 11.5098ZM13.8848 5.9668V5.7168H6.23633V5.9668V6.2168H13.8848V5.9668ZM6.23633 5.9668H5.98633V5.97168H6.23633H6.48633V5.9668H6.23633Z" fill="white"/>
</svg>
