<svg width="24" height="24" viewBox="0 0 24 24" fill="none" xmlns="http://www.w3.org/2000/svg">
<path d="M14.7637 4.75C15.3983 4.75013 15.9774 5.13593 16.1543 5.71973L16.1553 5.72168L17.7393 11.0518L17.7754 11.2051C17.7798 11.2317 17.7816 11.2585 17.7842 11.2852H20.2227C20.8568 11.2853 21.4365 11.6686 21.6133 12.2559L21.6143 12.2568L23.1982 17.5869L23.2334 17.7402C23.2924 18.0993 23.1871 18.4619 22.9424 18.7471L22.9414 18.748C22.6615 19.0702 22.2467 19.25 21.8066 19.25H13.1152C12.6844 19.2499 12.2777 19.0766 12 18.7627C11.7219 19.0761 11.3144 19.2499 10.8848 19.25H2.19336C1.75334 19.25 1.33651 19.0699 1.05859 18.7432V18.7422C0.777184 18.4162 0.680534 17.9926 0.801758 17.584L2.38574 12.2539L2.42285 12.1455C2.63285 11.6182 3.18382 11.2823 3.77734 11.2822H6.19629C6.19939 11.27 6.20057 11.2573 6.2041 11.2451L6.20508 11.2441L7.84668 5.72168L7.88379 5.61328C8.09383 5.08595 8.64472 4.75004 9.23828 4.75H14.7637ZM2.33496 17.8125H10.7451L9.22949 12.7178H3.84961L2.33496 17.8125ZM13.2549 17.8125H21.665L20.1494 12.7178H14.7705L13.2549 17.8125ZM10.8281 12.7178L12.001 16.6592L13.1729 12.7178H10.8281ZM7.7959 11.2822H16.2061L14.6904 6.1875H9.31152L7.7959 11.2822Z" fill="#1C0203"/>
</svg>
