<svg width="24" height="24" viewBox="0 0 24 24" fill="none" xmlns="http://www.w3.org/2000/svg">
<path d="M10.8845 18.9998H2.19289C1.8202 18.9998 1.47619 18.8479 1.24945 18.5813C1.02011 18.3171 0.944526 17.9805 1.04095 17.6555L2.62552 12.3248C2.76364 11.8572 3.23797 11.5322 3.77745 11.5322H9.3573C9.8629 11.5322 10.3059 11.8385 10.4363 12.2757L12.0365 17.6555C12.1329 17.9781 12.0573 18.3171 11.8306 18.5813C11.6038 18.8479 11.2572 18.9998 10.8845 18.9998ZM3.77745 12.4674C3.70969 12.4674 3.65235 12.5072 3.63411 12.5656L2.04955 17.8963C2.03391 17.9524 2.05737 17.9921 2.07561 18.0108C2.09385 18.0296 2.13034 18.0623 2.19289 18.0623H10.8871C10.9497 18.0623 10.9888 18.0296 11.0044 18.0108C11.02 17.9921 11.0461 17.9501 11.0305 17.8963L9.43027 12.5165C9.42245 12.4861 9.39118 12.4674 9.3573 12.4674H3.77745Z" fill="white" stroke="white" stroke-width="0.5"/>
<path d="M21.8068 18.9999H13.1151C12.7425 18.9999 12.3984 18.848 12.1717 18.5814C11.945 18.3172 11.8694 17.9782 11.9658 17.6556L13.5634 12.2782C13.6937 11.8409 14.1368 11.5347 14.6424 11.5347H20.2222C20.7617 11.5347 21.2334 11.8597 21.3742 12.3273L22.9587 17.6579C23.0551 17.9806 22.9796 18.3196 22.7528 18.5838C22.5235 18.848 22.1795 18.9999 21.8068 18.9999ZM14.6424 12.4675C14.6085 12.4675 14.5772 12.4886 14.5694 12.5166L12.9692 17.8964C12.9536 17.9525 12.977 17.9922 12.9953 18.0109C13.0109 18.0297 13.05 18.0624 13.1125 18.0624H21.8068C21.8693 18.0624 21.9084 18.0297 21.9241 18.0109C21.9397 17.9922 21.9658 17.9502 21.9501 17.8964L20.3656 12.5657C20.3473 12.5073 20.29 12.4675 20.2222 12.4675H14.6424Z" fill="white" stroke="white" stroke-width="0.5"/>
<path d="M16.3471 12.4676H7.43131C7.11075 12.4676 6.81625 12.3367 6.62079 12.1099C6.42533 11.8831 6.36278 11.5932 6.44357 11.315L8.08547 5.79258C8.22359 5.32498 8.69792 5 9.2374 5H14.7625C15.302 5 15.7737 5.32732 15.9144 5.79258L17.499 11.1232C17.5954 11.4459 17.5199 11.7849 17.2931 12.0491C17.0638 12.3156 16.7198 12.4676 16.3471 12.4676ZM7.45998 11.5324H16.3471C16.4096 11.5324 16.4487 11.4997 16.4644 11.481C16.48 11.4623 16.5061 11.4202 16.4904 11.3664L14.9059 6.03574C14.8876 5.97729 14.8303 5.93754 14.7625 5.93754H9.2374C9.16964 5.93754 9.1123 5.97729 9.09406 6.03574L7.45998 11.5324Z" fill="white" stroke="white" stroke-width="0.5"/>
</svg>
