<svg width="120" height="120" viewBox="0 0 120 120" fill="none" xmlns="http://www.w3.org/2000/svg">
<circle cx="60" cy="60" r="59" stroke="url(#paint0_linear_66_295)" stroke-width="2"/>
<path d="M105 79.7363C100.469 88.4676 99.0629 89.8468 93.5928 90H26.4062C20.9377 89.8468 19.5308 88.4674 15 79.7363C21.2503 85.5572 22.6567 85.8642 26.4062 85.8643H93.5928C97.3444 85.8643 98.7503 85.5573 105 79.7363ZM80.9189 81.0635C80.744 80.9916 80.2735 80.5897 80.292 80.2236C80.3108 79.5627 81.3127 79.1967 82.0479 79.5195V79.8857C81.8902 79.8282 81.7668 79.8281 81.5732 79.8281C80.6866 79.8285 80.784 80.9131 81.4775 81.0635H82.0283V81.5459H81.5176V84.6992H80.6309V81.5459H79.4453C80.2363 82.3275 79.5022 83.4905 78.1836 83.5635C78.2221 83.5635 78.502 83.7715 78.7139 83.8867C79.0894 84.0947 79.4268 84.2748 79.4453 84.2891L78.9346 84.7422C78.0688 84.419 77.3348 83.7998 76.6611 83.2969L77.2207 82.9033L77.5469 83.1113C77.5669 83.1113 77.6922 83.1968 77.9229 83.1533C78.6936 83.0312 78.8203 82.6954 78.8389 82.5352C77.943 82.9876 76.527 82.3427 77.0566 81.5459H75.2637V82.5498H73.2129C72.952 82.5498 72.7199 82.709 72.7197 82.959C72.711 83.6195 73.9827 83.8554 74.2334 83.7275C74.1965 83.648 74.2914 83.1255 74.9072 83.1113C75.563 83.1117 75.6777 83.871 75.1006 84.0215C75.1006 84.0357 75.225 84.2593 75.3408 84.3887C75.4757 84.5685 75.7168 84.8281 75.7168 84.8281H74.8105C74.8062 84.822 74.664 84.6237 74.5879 84.502C74.5308 84.3884 74.4933 84.3166 74.4346 84.2236C74.3864 84.2381 71.8251 84.3142 71.8418 82.9033C71.8418 82.4493 72.402 82.0772 73.0469 82.0771H74.376V81.5459H71.3125V81.0635H80.9189ZM39.8555 81.0635V81.5459H39.3447V84.6992H38.457V81.5459H37.2344V84.6992H36.3477V83.0967H34.8828V83.5195C34.8828 83.5338 34.8636 83.7577 34.6035 83.7578C34.3525 83.7578 33.3604 82.9591 33.3604 82.8018C33.3606 82.6363 33.6769 82.6221 33.6973 82.6221H34.0352V81.5449H32.8691V81.0635H39.8555ZM50.9922 81.0635V81.5449H48.4199V82.2705C48.4239 82.267 48.7234 82.0039 49.3066 82.0039C50.0383 82.004 50.6553 82.4493 50.6553 82.9736C50.6549 83.6705 49.6436 84.3027 49.6436 84.3027L48.998 83.9658C49.0217 83.9633 49.788 83.5046 49.7881 82.9873C49.7881 82.7371 49.5852 82.4785 49.21 82.4785C48.7765 82.4787 48.4199 82.9033 48.4199 82.917V84.6992H47.5527V83.8418C46.6096 84.3028 45.2598 83.9009 45.2598 82.9873C45.2598 81.8742 47.0039 81.9473 47.0039 81.9473L47.1963 82.4277C47.0219 82.3856 46.1274 82.371 46.0889 82.9736C46.0699 83.2823 46.3682 83.534 46.7432 83.5342C47.2736 83.5482 47.5527 83.2105 47.5527 83.1963V81.5449L44.7305 81.5459H44.2393V84.6992H43.3525V82.8301H41.8096V83.3262C41.8096 83.3423 41.8082 83.5633 41.5693 83.5479C41.2699 83.5331 40.4033 82.7509 40.4033 82.5781C40.4034 82.3425 40.7206 82.3272 40.7598 82.3271H43.3525V81.5449H39.874V81.0635H50.9922ZM61.5059 81.5449H60.9951V84.6992H60.1279V83.4902C59.8293 83.6338 59.6455 83.6709 59.2314 83.6709C58.086 83.6567 57.7192 82.8885 57.7188 82.666V81.5449H57.082V81.0635H61.5059V81.5449ZM62.8838 80.9922C63.7205 80.9923 64.4248 81.5024 64.4248 82.1055C64.4246 82.7237 63.6145 83.2544 62.8262 83.2266C62.8308 83.2333 63.0917 83.6055 63.7979 83.5918C64.5484 83.5918 65.1515 83.1371 65.3779 82.9219V81.5459H64.6465V81.0635H66.7754V81.5459H66.2646V84.6992H65.3779V83.6768C64.0142 84.453 61.9118 84.0196 61.5439 82.6953C61.6017 82.7235 61.9399 82.7734 62.3535 82.7871C62.9123 82.787 63.5564 82.5781 63.5566 82.0625C63.5566 81.7673 63.3852 81.4581 62.8838 81.458C62.3146 81.4583 62.2953 82.0039 62.8447 82.0039V82.4277C62.6325 82.4417 61.6592 82.3563 61.6592 81.71C61.6593 81.2715 62.2373 80.9774 62.8838 80.9922ZM71.2178 81.5449H70.707V84.6992H69.8398V83.4902C69.8328 83.4936 69.8253 83.4958 69.8184 83.499V83.6494L67.6797 84.6992L67.1875 84.2236L68.6934 83.6523C67.7439 83.5393 67.431 82.8714 67.4307 82.666V81.5449H66.7939V81.0635H71.2178V81.5449ZM88.4268 81.5449H85.8525V82.2705C85.8525 82.2705 86.1525 82.0039 86.7402 82.0039C87.4725 82.004 88.0889 82.4492 88.0889 82.9736C88.0885 83.6651 87.0925 84.2931 87.0771 84.3027L86.4316 83.9658C86.4517 83.9658 87.2216 83.506 87.2217 82.9873C87.2217 82.7372 87.0197 82.4786 86.6445 82.4785C86.2115 82.4785 85.8525 82.9033 85.8525 82.917V84.6992H84.9873V83.8418C84.0426 84.3028 82.6934 83.9009 82.6934 82.9873C82.6934 81.8742 84.4365 81.9473 84.4365 81.9473L84.6299 82.4277C84.4565 82.3856 83.56 82.3705 83.5215 82.9736C83.5017 83.2824 83.8014 83.5341 84.1768 83.5342C84.7056 83.5482 84.9863 83.2105 84.9863 83.1963V81.5449H82.1631V81.0635H88.4268V81.5449ZM52.6787 84.2246H51.6582V83.5342H52.6787V84.2246ZM90.1123 84.2246H89.0918V83.5342H90.1123V84.2246ZM58.5859 82.6953C58.586 82.9594 58.7783 83.2109 59.2695 83.2266C59.7324 83.2266 60.0986 82.9314 60.1279 82.8584V81.5459H58.5859V82.6953ZM68.2988 82.6953C68.2989 82.9594 68.4912 83.211 68.9814 83.2266C69.4441 83.2264 69.8097 82.9314 69.8398 82.8584V81.5459H68.2988V82.6953ZM34.8828 82.6221H36.3477V81.5459H34.8828V82.6221ZM52.6787 82.2412H51.6582V81.5508H52.6787V82.2412ZM90.1123 82.2412H89.0918V81.5508H90.1123V82.2412ZM78.8975 81.9609C78.9543 81.4877 77.6924 81.3014 77.6924 81.8604C77.6922 82.0768 77.9623 82.2129 78.2617 82.2129C78.5598 82.2267 78.8386 82.0763 78.8975 81.9609ZM60.0713 30C62.4158 30 64.7599 31.6854 67.416 34.29L99.4473 65.541C106.478 72.1277 100.853 78.5616 93.8223 78.2549H70.8525L60.0713 67.3789H78.04C81.9472 67.685 83.665 65.3869 80.6982 62.4766L62.416 44.5537C61.4786 43.6347 60.6965 43.3281 60.0713 43.3281C59.4472 43.3282 58.6657 43.6348 57.7285 44.5537L39.4473 62.4766C36.4786 65.387 38.1973 67.6852 42.1035 67.3789H60.0713L49.291 78.2549H26.3223C19.2914 78.5617 13.6665 72.1278 20.6973 65.541L52.7285 34.29C55.3846 31.6855 57.7277 30.0001 60.0713 30ZM59.9629 53.7852C63.6318 53.7852 66.6043 56.6995 66.6045 60.2949C66.6045 63.8913 63.6316 66.8066 59.9629 66.8066C56.2957 66.8066 53.3223 63.8913 53.3223 60.2949C53.3225 56.6992 56.2956 53.7852 59.9629 53.7852Z" fill="url(#paint1_linear_66_295)"/>
<defs>
<linearGradient id="paint0_linear_66_295" x1="60" y1="120" x2="60" y2="0" gradientUnits="userSpaceOnUse">
<stop stop-color="#AA7515"/>
<stop offset="1" stop-color="#FBE255"/>
</linearGradient>
<linearGradient id="paint1_linear_66_295" x1="60" y1="90" x2="60" y2="30" gradientUnits="userSpaceOnUse">
<stop stop-color="#AA7515"/>
<stop offset="1" stop-color="#FBE255"/>
</linearGradient>
</defs>
</svg>
