<svg width="120" height="120" viewBox="0 0 120 120" fill="none" xmlns="http://www.w3.org/2000/svg">
<circle cx="60" cy="60" r="59" stroke="url(#paint0_linear_66_294)" stroke-width="2"/>
<path d="M59.5635 25.0674C59.8498 24.9767 60.1502 24.9767 60.4365 25.0674L89.0723 34.1416C89.6177 34.3231 89.9999 34.8158 90 35.373V57.6162C90 74.8559 77.8229 90.217 60.3682 94.9482C60.2455 94.9871 60.1226 95 60 95C59.8773 95 59.7545 94.9871 59.6318 94.9482C42.1771 90.2171 30 74.8559 30 57.6162V35.373C30.0001 34.8157 30.3823 34.3231 30.9277 34.1416L59.5635 25.0674ZM60.4365 33.2734C60.1502 33.1827 59.8498 33.1827 59.5635 33.2734L39.1084 39.7549C38.563 39.9235 38.1816 40.4163 38.1816 40.9736V57.6172C38.1818 70.5404 46.7589 82.2453 59.5225 86.7432C59.6722 86.7949 59.8357 86.8203 59.999 86.8203C60.1626 86.8203 60.3266 86.7949 60.4766 86.7432C73.2401 82.246 81.8172 70.5404 81.8174 57.6172L81.8193 40.9736C81.8193 40.4162 81.4371 39.9234 80.8916 39.7549L60.4365 33.2734ZM79.0908 41.9189V57.6172C79.0907 69.3092 71.4404 79.8989 60 84.1377C48.5591 79.8985 40.9093 69.3093 40.9092 57.6172V41.9189L60 35.8662L79.0908 41.9189ZM70.3906 50.6816C69.7907 50.241 68.9315 50.3312 68.4678 50.9014L57.9268 63.7344L51.4219 57.5518C50.89 57.0463 50.0172 57.0463 49.4854 57.5518C48.9539 58.0571 48.954 58.8734 49.4854 59.3789L57.0811 66.5996C57.3402 66.8458 57.6953 66.9883 58.0498 66.9883H58.1309C58.5263 66.9753 58.8815 66.7933 59.127 66.4951L70.6221 52.5098C71.0857 51.9524 70.977 51.1351 70.3906 50.6943V50.6816Z" fill="url(#paint1_linear_66_294)"/>
<defs>
<linearGradient id="paint0_linear_66_294" x1="60" y1="120" x2="60" y2="0" gradientUnits="userSpaceOnUse">
<stop stop-color="#AA7515"/>
<stop offset="1" stop-color="#FBE255"/>
</linearGradient>
<linearGradient id="paint1_linear_66_294" x1="60" y1="94.9997" x2="60" y2="25" gradientUnits="userSpaceOnUse">
<stop stop-color="#AA7515"/>
<stop offset="1" stop-color="#FBE255"/>
</linearGradient>
</defs>
</svg>
