<svg width="120" height="120" viewBox="0 0 120 120" fill="none" xmlns="http://www.w3.org/2000/svg">
<circle cx="60" cy="60" r="59" stroke="url(#paint0_linear_66_297)" stroke-width="2"/>
<path fill-rule="evenodd" clip-rule="evenodd" d="M25.3667 50.165L56.1209 87.5522L42.1711 50.165H25.3667Z" fill="url(#paint1_linear_66_297)"/>
<path fill-rule="evenodd" clip-rule="evenodd" d="M44.9111 50.165L59.7747 89.9998L74.9279 50.165H44.9111Z" fill="url(#paint2_linear_66_297)"/>
<path fill-rule="evenodd" clip-rule="evenodd" d="M63.085 88.5177L94.6332 50.165H77.6757L63.085 88.5177Z" fill="url(#paint3_linear_66_297)"/>
<path fill-rule="evenodd" clip-rule="evenodd" d="M82.5999 30H62.7041L76.345 46.4413L82.5999 30Z" fill="url(#paint4_linear_66_297)"/>
<path fill-rule="evenodd" clip-rule="evenodd" d="M74.0274 47.6454L60.0003 30.7402L45.9746 47.6454H74.0274Z" fill="url(#paint5_linear_66_297)"/>
<path fill-rule="evenodd" clip-rule="evenodd" d="M57.2958 30H37.3872L43.5635 46.551L57.2958 30Z" fill="url(#paint6_linear_66_297)"/>
<path fill-rule="evenodd" clip-rule="evenodd" d="M35.242 31.5957L25 47.6451H41.2304L35.242 31.5957Z" fill="url(#paint7_linear_66_297)"/>
<path fill-rule="evenodd" clip-rule="evenodd" d="M95.0003 47.6451L84.7467 31.5781L78.6348 47.6451H95.0003Z" fill="url(#paint8_linear_66_297)"/>
<defs>
<linearGradient id="paint0_linear_66_297" x1="60" y1="120" x2="60" y2="0" gradientUnits="userSpaceOnUse">
<stop stop-color="#AA7515"/>
<stop offset="1" stop-color="#FBE255"/>
</linearGradient>
<linearGradient id="paint1_linear_66_297" x1="40.7438" y1="87.5522" x2="40.7438" y2="50.165" gradientUnits="userSpaceOnUse">
<stop stop-color="#AA7515"/>
<stop offset="1" stop-color="#FBE255"/>
</linearGradient>
<linearGradient id="paint2_linear_66_297" x1="59.9195" y1="89.9998" x2="59.9195" y2="50.165" gradientUnits="userSpaceOnUse">
<stop stop-color="#AA7515"/>
<stop offset="1" stop-color="#FBE255"/>
</linearGradient>
<linearGradient id="paint3_linear_66_297" x1="78.8591" y1="88.5177" x2="78.8591" y2="50.165" gradientUnits="userSpaceOnUse">
<stop stop-color="#AA7515"/>
<stop offset="1" stop-color="#FBE255"/>
</linearGradient>
<linearGradient id="paint4_linear_66_297" x1="72.652" y1="46.4413" x2="72.652" y2="30" gradientUnits="userSpaceOnUse">
<stop stop-color="#AA7515"/>
<stop offset="1" stop-color="#FBE255"/>
</linearGradient>
<linearGradient id="paint5_linear_66_297" x1="60.001" y1="47.6454" x2="60.001" y2="30.7402" gradientUnits="userSpaceOnUse">
<stop stop-color="#AA7515"/>
<stop offset="1" stop-color="#FBE255"/>
</linearGradient>
<linearGradient id="paint6_linear_66_297" x1="47.3415" y1="46.551" x2="47.3415" y2="30" gradientUnits="userSpaceOnUse">
<stop stop-color="#AA7515"/>
<stop offset="1" stop-color="#FBE255"/>
</linearGradient>
<linearGradient id="paint7_linear_66_297" x1="33.1152" y1="47.6451" x2="33.1152" y2="31.5957" gradientUnits="userSpaceOnUse">
<stop stop-color="#AA7515"/>
<stop offset="1" stop-color="#FBE255"/>
</linearGradient>
<linearGradient id="paint8_linear_66_297" x1="86.8175" y1="47.6451" x2="86.8175" y2="31.5781" gradientUnits="userSpaceOnUse">
<stop stop-color="#AA7515"/>
<stop offset="1" stop-color="#FBE255"/>
</linearGradient>
</defs>
</svg>
